<?xml version="1.0" standalone="no"?>
<!DOCTYPE svg PUBLIC "-//W3C//DTD SVG 20010904//EN"
 "http://www.w3.org/TR/2001/REC-SVG-20010904/DTD/svg10.dtd">
<svg version="1.0" xmlns="http://www.w3.org/2000/svg"
 width="500.000000pt" height="500.000000pt" viewBox="0 0 500.000000 500.000000"
 preserveAspectRatio="xMidYMid meet">

<g transform="translate(0.000000,500.000000) scale(0.100000,-0.100000)"
fill="#000000" stroke="none">
<path d="M2588 3663 c-22 -3 -28 -10 -28 -28 0 -13 -8 -29 -17 -34 -23 -14
-20 -14 147 -25 52 -3 105 -8 118 -10 20 -5 22 -1 22 43 l0 48 -67 6 c-71 7
-129 7 -175 0z"/>
<path d="M2845 3651 c-3 -2 -5 -24 -5 -49 0 -39 2 -44 20 -39 11 3 20 2 20 -2
0 -4 19 -7 43 -7 69 -1 279 -37 265 -45 -7 -4 -10 -11 -6 -14 8 -9 80 -9 107
0 34 10 81 -3 74 -22 -5 -13 -3 -13 15 -2 16 10 23 10 36 0 8 -7 19 -10 25 -7
5 3 24 0 41 -8 22 -9 28 -15 19 -19 -8 -4 3 -4 24 -1 26 5 45 1 63 -11 15 -9
23 -12 20 -6 -4 6 13 3 38 -6 25 -9 42 -21 39 -27 -4 -5 1 -7 10 -3 9 3 37 -5
63 -19 26 -14 56 -23 66 -21 10 3 21 0 25 -5 4 -7 1 -8 -7 -3 -8 5 -11 4 -6
-3 4 -6 12 -9 19 -6 7 2 30 -7 51 -21 39 -27 51 -31 41 -15 -3 6 1 7 10 4 14
-6 14 -7 0 -18 -13 -9 -9 -11 17 -10 21 1 55 -13 100 -40 62 -37 67 -42 51
-55 -17 -13 -17 -13 0 -7 10 3 28 1 40 -6 20 -10 21 -10 7 7 -8 10 2 6 25 -10
22 -15 39 -31 38 -36 -2 -5 2 -9 7 -9 6 0 10 -5 10 -10 0 -7 -7 -7 -21 0 -23
13 -54 6 -44 -10 3 -5 12 -10 18 -10 7 0 6 4 -3 10 -13 9 -13 10 0 10 8 0 22
-4 30 -10 9 -5 19 -5 27 2 9 7 20 4 41 -13 15 -13 27 -28 27 -34 0 -5 9 -10
20 -10 12 0 20 -7 20 -17 0 -10 6 -23 13 -30 11 -11 12 -9 6 7 -6 17 -4 16 17
-5 14 -14 24 -30 22 -36 -2 -6 4 -17 14 -25 17 -13 17 -13 3 6 -14 19 -14 19
3 6 9 -7 17 -20 17 -27 0 -8 6 -14 14 -14 8 0 18 -5 22 -12 4 -7 3 -8 -4 -4
-8 5 -10 2 -6 -8 3 -9 9 -14 13 -12 3 2 16 -10 29 -25 13 -16 19 -29 13 -29
-6 0 -11 4 -11 10 0 5 -10 15 -22 21 -20 10 -19 8 5 -16 15 -15 27 -32 27 -37
0 -5 4 -6 10 -3 5 3 7 0 4 -9 -3 -8 3 -19 15 -25 13 -8 18 -17 14 -28 -6 -15
-7 -14 -14 3 -5 12 -8 14 -8 4 0 -8 9 -35 19 -60 17 -42 19 -43 17 -13 -1 17
-5 29 -9 26 -5 -2 -8 3 -8 11 0 9 5 16 10 16 10 0 14 -14 11 -37 -1 -7 2 -13
7 -13 4 0 14 -40 21 -89 12 -82 12 -90 -5 -117 -11 -15 -13 -25 -6 -21 7 5 12
3 12 -3 0 -7 -9 -14 -20 -17 -11 -3 -17 -9 -14 -14 3 -5 10 -7 15 -4 5 4 9 -3
9 -14 0 -24 -10 -27 -28 -9 -9 9 -12 8 -12 -6 0 -9 5 -14 10 -11 6 3 10 1 10
-5 0 -6 5 -8 13 -4 8 5 8 3 -2 -9 -7 -9 -17 -15 -21 -12 -4 3 -11 -2 -14 -11
-3 -8 -2 -12 3 -9 6 3 8 -7 6 -22 -2 -16 -4 -32 -4 -36 -1 -5 -5 -5 -11 -2 -5
3 -7 0 -4 -8 3 -9 -3 -17 -17 -20 -18 -5 -20 -9 -11 -20 9 -10 9 -16 0 -25
-18 -18 -32 -14 -17 5 8 9 9 14 2 10 -6 -4 -13 -3 -15 3 -2 6 -9 1 -16 -11 -8
-12 -10 -19 -5 -16 4 3 14 -1 21 -9 8 -9 9 -14 2 -14 -6 0 -9 -4 -6 -9 3 -4
-3 -16 -13 -25 -14 -13 -21 -14 -27 -5 -5 8 -3 10 6 4 8 -5 11 -4 6 3 -4 6
-13 9 -21 6 -12 -5 -12 -8 1 -21 14 -14 13 -18 -7 -39 -12 -13 -25 -22 -28
-20 -3 2 -12 -2 -19 -10 -7 -8 -10 -14 -7 -14 4 0 0 -7 -9 -15 -19 -19 -32
-19 -16 0 7 8 8 15 4 15 -5 0 -15 -9 -22 -21 -8 -12 -9 -18 -3 -14 6 3 11 2
11 -3 0 -17 -13 -22 -27 -10 -11 9 -12 7 -7 -7 6 -14 4 -16 -6 -10 -8 5 -26
10 -39 11 -17 2 -21 0 -13 -5 10 -6 9 -10 -6 -13 -20 -6 -24 -30 -7 -45 4 -4
5 -2 0 6 -5 10 -4 12 4 7 6 -4 9 -12 5 -17 -3 -5 -10 -7 -15 -4 -5 4 -9 2 -9
-2 0 -5 -9 -14 -20 -20 -16 -11 -18 -10 -14 2 5 11 2 13 -10 9 -9 -4 -14 -9
-11 -12 9 -10 -48 -62 -68 -62 -14 0 -18 5 -14 20 3 12 1 18 -5 14 -5 -3 -7
-17 -3 -31 5 -21 4 -23 -14 -14 -27 15 -30 14 -26 -9 3 -17 1 -18 -15 -10 -18
10 -50 4 -50 -9 0 -4 6 -13 13 -21 6 -8 8 -11 3 -7 -5 4 -20 0 -34 -9 -16 -11
-37 -14 -61 -11 l-36 5 29 -12 28 -13 -33 -8 c-19 -4 -37 -7 -41 -7 -3 1 -12
-5 -18 -13 -7 -8 -20 -15 -29 -15 -9 0 -22 -5 -29 -12 -9 -9 -12 -9 -12 3 0 9
-3 10 -8 3 -12 -19 -50 -34 -67 -28 -9 4 -21 1 -25 -6 -10 -16 -66 2 -62 20 2
10 0 11 -10 3 -7 -6 -22 -13 -33 -16 -17 -4 -16 -5 5 -6 38 -2 70 -12 70 -23
0 -5 -4 -7 -9 -4 -5 4 -22 1 -38 -5 -15 -6 -41 -15 -58 -19 -16 -4 -39 -11
-50 -15 -16 -5 -17 -5 -5 4 25 18 3 12 -35 -9 -19 -11 -61 -23 -93 -26 -31 -3
-68 -10 -82 -15 -36 -12 -78 -19 -138 -20 -37 -1 -49 -5 -40 -11 8 -6 -3 -7
-32 -4 -34 5 -40 3 -25 -4 15 -7 9 -8 -22 -4 -24 3 -43 2 -43 -3 0 -11 -40
-14 -213 -14 -87 0 -145 -4 -142 -10 4 -5 -9 -9 -27 -9 -26 0 -30 3 -18 11 12
8 11 9 -5 5 -60 -15 -160 -18 -198 -5 -31 10 -41 11 -45 1 -2 -7 -13 -10 -26
-6 -23 5 -87 11 -196 18 -76 4 -109 14 -88 27 9 6 9 9 1 9 -21 0 -24 -18 -6
-30 16 -10 16 -11 -2 -5 -11 4 -37 9 -57 12 -21 3 -38 9 -38 13 0 6 -29 9
-108 10 -18 0 -42 5 -52 10 -11 6 -37 12 -57 14 -53 5 -157 31 -308 78 -96 30
-125 43 -110 48 13 5 6 7 -23 6 -24 0 -46 4 -50 9 -4 6 -15 11 -26 13 -21 4
-49 16 -85 36 -16 10 -19 15 -10 18 8 3 2 3 -13 1 -17 -3 -34 2 -44 11 -8 9
-23 16 -32 16 -26 1 -127 66 -124 79 1 7 -3 9 -9 6 -14 -10 -59 15 -59 32 0 7
-10 13 -22 13 -13 0 -40 19 -67 47 -25 26 -41 41 -36 33 8 -13 6 -13 -11 0
-26 20 -34 32 -27 43 6 10 -25 47 -40 47 -6 0 0 -11 13 -25 13 -14 19 -25 13
-25 -17 0 -84 83 -79 97 3 7 -1 10 -9 7 -15 -6 -58 53 -49 68 3 4 -1 8 -9 8
-14 0 -57 72 -57 95 0 7 -5 15 -11 17 -6 2 -11 20 -12 41 -1 22 -4 32 -9 24
-11 -18 -10 17 4 83 8 41 8 66 0 95 l-11 40 6 -47 c7 -60 -4 -115 -21 -98 -8
10 -8 14 2 17 6 3 12 19 11 36 -1 31 -1 31 -9 7 -14 -45 -11 47 4 120 l14 65
-31 28 c-17 15 -34 27 -39 27 -4 0 -8 -98 -8 -219 0 -212 1 -220 25 -276 27
-61 87 -153 127 -196 13 -14 33 -36 43 -50 31 -38 154 -142 225 -190 68 -46
228 -139 240 -139 3 0 31 -14 62 -30 31 -17 80 -39 109 -49 30 -10 86 -30 124
-44 152 -55 267 -86 475 -127 249 -49 262 -50 765 -50 520 0 486 -3 845 64
276 51 673 208 893 352 189 125 347 294 428 459 l34 70 0 205 0 205 -39 79
c-22 44 -62 109 -90 145 -48 62 -203 221 -217 221 -3 0 -17 10 -30 21 -84 75
-392 238 -525 278 -16 5 -60 21 -99 35 -38 15 -95 33 -125 40 -30 8 -100 26
-155 40 -55 15 -145 34 -200 42 -55 9 -129 20 -165 25 -96 15 -210 26 -215 20z
m415 -141 c22 -7 21 -8 -12 -9 -21 -1 -38 4 -38 9 0 11 14 11 50 0z m1044
-1574 c-8 -20 -28 -26 -45 -14 -12 8 -12 9 1 5 8 -2 21 2 28 10 17 17 23 17
16 -1z m-271 -172 c11 -11 -3 -24 -18 -18 -8 4 -12 10 -9 15 6 11 18 12 27 3z
m-1876 -330 c-3 -3 -12 -4 -19 -1 -8 3 -5 6 6 6 11 1 17 -2 13 -5z m500 -10
c-3 -3 -12 -4 -19 -1 -8 3 -5 6 6 6 11 1 17 -2 13 -5z"/>
<path d="M2305 3570 c27 -12 43 -12 25 0 -8 5 -22 9 -30 9 -10 0 -8 -3 5 -9z"/>
<path d="M2388 3573 c17 -2 47 -2 65 0 17 2 3 4 -33 4 -36 0 -50 -2 -32 -4z"/>
<path d="M2243 3563 c9 -2 23 -2 30 0 6 3 -1 5 -18 5 -16 0 -22 -2 -12 -5z"/>
<path d="M2568 3563 c7 -3 16 -2 19 1 4 3 -2 6 -13 5 -11 0 -14 -3 -6 -6z"/>
<path d="M1888 3534 c-3 -3 -28 -9 -55 -14 l-48 -8 40 -2 c39 -2 39 -3 10 -10
-27 -7 -28 -8 -5 -8 14 0 34 3 45 8 l20 9 -20 1 -20 1 20 9 c11 5 27 9 35 9
13 1 13 0 0 -9 -12 -8 -10 -10 9 -10 20 0 21 2 11 15 -13 15 -32 20 -42 9z"/>
<path d="M1953 3533 c9 -2 25 -2 35 0 9 3 1 5 -18 5 -19 0 -27 -2 -17 -5z"/>
<path d="M1978 3513 c7 -3 16 -2 19 1 4 3 -2 6 -13 5 -11 0 -14 -3 -6 -6z"/>
<path d="M1748 3503 c6 -2 18 -2 25 0 6 3 1 5 -13 5 -14 0 -19 -2 -12 -5z"/>
<path d="M2028 3503 c7 -3 16 -2 19 1 4 3 -2 6 -13 5 -11 0 -14 -3 -6 -6z"/>
<path d="M1670 3490 c11 -7 60 -2 60 6 0 2 -16 3 -35 2 -20 -1 -31 -4 -25 -8z"/>
<path d="M1948 3493 c7 -3 16 -2 19 1 4 3 -2 6 -13 5 -11 0 -14 -3 -6 -6z"/>
<path d="M1552 3461 c-10 -6 -6 -10 15 -14 33 -6 44 0 23 13 -18 12 -22 12
-38 1z"/>
<path d="M1506 3443 c-6 -14 -5 -15 5 -6 7 7 10 15 7 18 -3 3 -9 -2 -12 -12z"/>
<path d="M3440 3450 c0 -5 5 -10 10 -10 6 0 10 5 10 10 0 6 -4 10 -10 10 -5 0
-10 -4 -10 -10z"/>
<path d="M1430 3425 c0 -8 -5 -15 -12 -15 -6 0 -9 -2 -7 -4 2 -2 22 0 44 4 37
7 38 8 10 10 l-30 2 30 8 30 8 -32 1 c-23 1 -33 -4 -33 -14z"/>
<path d="M1550 3430 c19 -13 30 -13 30 0 0 6 -10 10 -22 10 -19 0 -20 -2 -8
-10z"/>
<path d="M1388 3423 c-10 -2 -18 -9 -18 -14 0 -14 16 -11 30 6 7 8 11 14 9 14
-2 -1 -12 -3 -21 -6z"/>
<path d="M1517 3413 c-3 -5 6 -9 20 -10 19 -1 22 1 12 8 -17 11 -26 11 -32 2z"/>
<path d="M3500 3416 c0 -2 7 -7 16 -10 8 -3 12 -2 9 4 -6 10 -25 14 -25 6z"/>
<path d="M2194 3385 c-4 -10 -13 -14 -23 -11 -14 5 -14 5 -1 -6 15 -13 16 -53
1 -44 -4 3 -8 -13 -8 -35 0 -21 4 -39 9 -39 5 0 6 -6 2 -12 -4 -7 -3 -10 1 -5
13 11 16 47 5 47 -6 0 -10 8 -10 18 0 15 2 15 11 2 9 -13 10 -13 6 1 -3 9 1
26 9 37 11 16 11 21 1 25 -7 3 -5 6 6 6 19 1 23 16 7 26 -6 3 -13 -1 -16 -10z"/>
<path d="M2230 3392 c0 -4 15 -8 33 -9 26 -2 28 0 12 7 -26 11 -45 12 -45 2z"/>
<path d="M2527 3375 c2 -11 5 -26 5 -32 1 -7 5 -13 10 -13 5 0 6 10 3 21 -4
12 -3 19 2 16 5 -3 9 2 9 12 0 9 -8 17 -17 17 -12 0 -16 -6 -12 -21z"/>
<path d="M1298 3383 c7 -3 16 -2 19 1 4 3 -2 6 -13 5 -11 0 -14 -3 -6 -6z"/>
<path d="M1270 3360 c8 -5 22 -9 30 -9 10 0 8 3 -5 9 -27 12 -43 12 -25 0z"/>
<path d="M3690 3360 c-8 -5 -12 -11 -10 -14 3 -2 14 2 24 10 22 15 10 19 -14
4z"/>
<path d="M1208 3353 c7 -3 16 -2 19 1 4 3 -2 6 -13 5 -11 0 -14 -3 -6 -6z"/>
<path d="M1186 3336 c10 -8 21 -12 24 -10 5 6 -21 24 -34 24 -6 0 -1 -6 10
-14z"/>
<path d="M1253 3343 c9 -2 17 -9 17 -14 0 -5 5 -9 11 -9 8 0 8 5 -1 15 -7 8
-20 14 -29 14 -13 -1 -13 -2 2 -6z"/>
<path d="M1140 3330 c-13 -8 -12 -10 3 -10 9 0 17 5 17 10 0 12 -1 12 -20 0z"/>
<path d="M3718 3333 c7 -3 16 -2 19 1 4 3 -2 6 -13 5 -11 0 -14 -3 -6 -6z"/>
<path d="M2235 3293 c-3 -21 -23 -128 -45 -238 -21 -110 -58 -294 -80 -410
-23 -115 -53 -272 -69 -347 l-28 -138 128 0 c145 0 129 -11 149 105 7 39 26
135 42 215 16 80 36 183 43 229 23 136 5 123 170 119 225 -5 230 -14 171 -301
-19 -95 -43 -216 -53 -269 l-19 -98 127 0 127 0 11 48 c5 26 24 119 41 207 17
88 37 193 45 233 33 162 14 261 -61 313 -58 40 -108 48 -316 56 l-177 6 6 46
c3 25 16 94 28 154 l22 107 -128 0 -128 0 -6 -37z"/>
<path d="M1100 3310 c-9 -6 -10 -10 -3 -10 6 0 15 5 18 10 8 12 4 12 -15 0z"/>
<path d="M1023 3282 c-6 -4 5 -7 27 -7 21 0 36 3 34 7 -6 10 -45 10 -61 0z"/>
<path d="M2533 3275 c0 -8 4 -12 9 -9 5 3 6 10 3 15 -9 13 -12 11 -12 -6z"/>
<path d="M3900 3280 c20 -13 33 -13 25 0 -3 6 -14 10 -23 10 -15 0 -15 -2 -2
-10z"/>
<path d="M3850 3265 c8 -10 7 -14 -2 -18 -8 -3 -8 -6 -2 -6 6 -1 17 5 23 13 9
11 7 15 -9 19 -17 4 -19 3 -10 -8z"/>
<path d="M1032 3261 c-11 -7 -10 -9 3 -14 9 -4 14 -3 10 2 -3 5 1 12 7 14 7 3
9 6 3 6 -5 0 -16 -3 -23 -8z"/>
<path d="M1070 3249 c0 -5 5 -7 10 -4 6 3 10 8 10 11 0 2 -4 4 -10 4 -5 0 -10
-5 -10 -11z"/>
<path d="M3950 3250 c-11 -8 -8 -9 12 -4 19 4 29 1 37 -13 9 -15 10 -16 11 -2
0 26 -34 36 -60 19z"/>
<path d="M940 3235 c-7 -8 -9 -15 -5 -15 4 0 2 -7 -5 -15 -7 -8 -9 -15 -6 -15
4 0 14 7 22 15 12 12 12 15 2 15 -10 0 -9 3 2 10 8 5 12 12 9 15 -4 3 -12 -1
-19 -10z"/>
<path d="M2529 3238 c-2 -23 2 -43 12 -53 6 -6 6 2 -1 19 -9 25 -8 27 6 22 14
-5 15 -4 4 9 -15 18 -20 19 -21 3z"/>
<path d="M4030 3231 c0 -10 29 -36 34 -30 1 2 -6 12 -16 22 -10 9 -18 13 -18
8z"/>
<path d="M4017 3189 c12 -12 24 -21 27 -18 2 2 -8 13 -22 23 l-27 19 22 -24z"/>
<path d="M4084 3202 c3 -6 2 -13 -4 -17 -6 -4 -8 -11 -4 -16 3 -5 10 -7 15 -3
5 3 6 10 3 16 -5 7 -1 9 9 5 24 -9 21 0 -4 14 -13 7 -19 7 -15 1z"/>
<path d="M859 3190 c-7 -5 -10 -13 -5 -17 5 -4 11 -2 13 4 3 10 10 10 25 2 11
-6 22 -9 24 -6 9 9 -44 25 -57 17z"/>
<path d="M2518 3173 c6 -2 12 -9 12 -14 0 -6 -5 -7 -12 -3 -7 5 -8 3 -4 -5 5
-7 0 -21 -10 -32 -16 -18 -16 -19 -1 -13 10 3 17 1 17 -5 0 -6 -5 -11 -11 -11
-5 0 -8 -4 -5 -9 4 -5 0 -11 -6 -14 -7 -2 1 -4 17 -4 17 0 24 2 18 4 -7 3 -13
9 -13 14 0 6 5 7 11 3 8 -4 8 0 0 15 -8 15 -9 27 -2 39 9 14 10 12 11 -12 0
-37 5 -31 14 14 3 21 2 30 -3 22 -7 -11 -9 -11 -14 2 -4 9 -12 16 -19 15 -10
0 -10 -2 0 -6z"/>
<path d="M2145 3150 c4 -6 11 -8 16 -5 14 9 11 15 -7 15 -8 0 -12 -5 -9 -10z"/>
<path d="M776 3133 c5 -5 12 -12 16 -18 4 -6 8 -2 8 8 0 9 -7 17 -17 17 -9 0
-12 -3 -7 -7z"/>
<path d="M4195 3130 c3 -5 14 -10 23 -10 15 0 15 2 2 10 -20 13 -33 13 -25 0z"/>
<path d="M755 3110 c3 -5 8 -10 11 -10 2 0 4 5 4 10 0 6 -5 10 -11 10 -5 0 -7
-4 -4 -10z"/>
<path d="M727 3089 c7 -7 15 -10 18 -7 3 3 -2 9 -12 12 -14 6 -15 5 -6 -5z"/>
<path d="M4260 3080 c0 -5 5 -10 10 -10 6 0 10 5 10 10 0 6 -4 10 -10 10 -5 0
-10 -4 -10 -10z"/>
<path d="M1126 3065 c3 -8 12 -11 20 -8 20 7 17 18 -5 20 -13 1 -18 -3 -15
-12z"/>
<path d="M1206 3071 c-5 -7 90 -8 98 -1 3 3 -17 6 -45 7 -27 0 -51 -3 -53 -6z"/>
<path d="M1330 3066 c7 -7 13 -7 20 0 6 6 3 10 -10 10 -13 0 -16 -4 -10 -10z"/>
<path d="M1481 3070 c-9 -5 -4 -7 13 -7 29 0 32 2 13 10 -8 3 -20 2 -26 -3z"/>
<path d="M1550 3072 c0 -4 34 -7 75 -7 41 0 75 3 75 6 0 4 -34 7 -75 7 -41 0
-75 -3 -75 -6z"/>
<path d="M1710 3068 c0 -4 4 -8 9 -8 6 0 12 4 15 8 3 5 -1 9 -9 9 -8 0 -15 -4
-15 -9z"/>
<path d="M1763 3073 c9 -3 17 -10 17 -16 0 -7 4 -6 10 3 5 8 10 10 10 4 0 -7
7 -14 14 -17 11 -4 13 -1 10 11 -5 15 -4 15 9 -1 13 -16 15 -16 21 -1 5 14 9
14 24 3 14 -11 15 -11 5 1 -8 9 -36 14 -75 15 -35 1 -55 0 -45 -2z"/>
<path d="M2120 3076 c0 -2 7 -7 16 -10 8 -3 12 -2 9 4 -6 10 -25 14 -25 6z"/>
<path d="M2660 3072 c0 -5 7 -9 15 -9 8 0 12 4 9 9 -3 4 -9 8 -15 8 -5 0 -9
-4 -9 -8z"/>
<path d="M2700 3070 c0 -4 19 -6 43 -6 23 1 49 -3 57 -8 12 -8 13 -7 3 4 -13
14 -103 23 -103 10z"/>
<path d="M2816 3068 c3 -5 10 -6 15 -3 13 9 11 12 -6 12 -8 0 -12 -4 -9 -9z"/>
<path d="M2919 3073 c-1 -5 -1 -11 0 -15 0 -5 -7 -8 -16 -9 -11 0 -13 -3 -5
-6 6 -2 10 -10 6 -16 -3 -7 1 -4 9 6 20 24 41 22 34 -3 -3 -11 -1 -18 4 -14
16 10 9 36 -11 41 -11 3 -17 9 -14 14 3 5 3 9 0 9 -3 0 -7 -3 -7 -7z"/>
<path d="M3134 3072 c4 -3 14 -7 22 -8 9 -1 13 0 10 4 -4 3 -14 7 -22 8 -9 1
-13 0 -10 -4z"/>
<path d="M3240 3070 c-38 -6 -33 -7 35 -8 54 0 72 3 55 8 -29 9 -30 9 -90 0z"/>
<path d="M3563 3073 c9 -2 25 -2 35 0 9 3 1 5 -18 5 -19 0 -27 -2 -17 -5z"/>
<path d="M3660 3070 c0 -4 7 -7 15 -6 23 3 26 12 5 13 -11 1 -20 -2 -20 -7z"/>
<path d="M3792 3068 c-9 -11 -9 -15 1 -16 59 -9 76 -9 72 -1 -3 4 -12 6 -21 2
-8 -3 -21 2 -28 12 -10 14 -14 15 -24 3z"/>
<path d="M3830 3067 c0 -5 7 -6 16 -3 8 3 28 -1 44 -9 26 -13 28 -13 26 3 -2
13 -13 17 -44 18 -23 0 -42 -4 -42 -9z"/>
<path d="M3453 3063 c15 -2 37 -2 50 0 12 2 0 4 -28 4 -27 0 -38 -2 -22 -4z"/>
<path d="M3628 3063 c7 -3 16 -2 19 1 4 3 -2 6 -13 5 -11 0 -14 -3 -6 -6z"/>
<path d="M1905 3050 c3 -5 8 -10 11 -10 2 0 4 5 4 10 0 6 -5 10 -11 10 -5 0
-7 -4 -4 -10z"/>
<path d="M2100 3049 c0 -6 5 -20 11 -31 9 -17 9 -20 -3 -15 -26 9 -41 -8 -22
-24 16 -12 17 -12 11 4 -4 11 -3 16 3 12 9 -6 11 -51 2 -68 -2 -4 -11 -2 -20
5 -10 8 -13 9 -9 1 4 -6 0 -16 -8 -21 -15 -8 -15 -10 0 -22 13 -11 15 -10 9 6
-5 17 -4 17 8 3 11 -14 15 -14 26 -3 9 10 9 14 1 14 -8 0 -8 4 -2 13 6 6 13
31 17 54 3 23 7 47 9 55 2 7 2 10 0 6 -8 -15 -25 -8 -19 7 3 8 1 15 -4 15 -6
0 -10 -5 -10 -11z"/>
<path d="M2840 3050 c0 -5 5 -10 11 -10 5 0 7 5 4 10 -3 6 -8 10 -11 10 -2 0
-4 -4 -4 -10z"/>
<path d="M1860 3041 c0 -6 3 -11 8 -12 4 0 15 -2 25 -4 11 -2 16 0 12 3 -4 4
-10 7 -13 7 -4 0 -13 4 -19 8 -8 5 -13 4 -13 -2z"/>
<path d="M3024 3034 c-18 -14 -18 -15 4 -4 12 6 22 13 22 15 0 8 -5 6 -26 -11z"/>
<path d="M4345 3019 c-4 -6 -5 -12 -2 -15 2 -3 7 2 10 11 7 17 1 20 -8 4z"/>
<path d="M1176 3008 c-9 -33 -87 -425 -86 -437 0 -7 -15 -88 -34 -180 -57
-275 -106 -526 -106 -539 0 -10 32 -12 127 -10 l127 3 17 85 c9 47 22 118 28
158 l13 72 161 0 c89 0 191 5 226 10 95 13 184 61 261 139 103 104 153 227
154 376 0 106 -22 163 -89 230 -89 89 -172 105 -548 105 -189 0 -248 -3 -251
-12z m538 -197 c80 -35 101 -105 71 -233 -25 -107 -69 -168 -148 -204 -57 -26
-74 -29 -200 -32 -131 -4 -139 -3 -133 15 3 10 12 59 20 108 9 50 29 153 45
230 16 77 30 142 30 144 1 2 62 1 136 -2 102 -5 146 -11 179 -26z"/>
<path d="M1430 2778 c0 -4 16 -8 35 -8 19 0 35 2 35 4 0 2 -16 6 -35 8 -19 2
-35 0 -35 -4z"/>
<path d="M1595 2781 c-3 -5 -2 -12 3 -15 5 -3 9 1 9 9 0 17 -3 19 -12 6z"/>
<path d="M1635 2781 c-3 -5 -2 -12 3 -15 5 -3 9 1 9 9 0 17 -3 19 -12 6z"/>
<path d="M1711 2754 c0 -11 3 -14 6 -6 3 7 2 16 -1 19 -3 4 -6 -2 -5 -13z"/>
<path d="M1735 2724 c0 -13 3 -24 8 -24 4 0 7 9 7 19 0 11 -3 22 -7 24 -5 3
-8 -6 -8 -19z"/>
<path d="M1422 2728 c-16 -16 -15 -25 1 -25 7 0 13 9 13 19 0 21 1 21 -14 6z"/>
<path d="M1413 2678 c-13 -16 -12 -58 2 -59 5 0 11 5 13 13 2 9 0 8 -7 -2 -7
-9 -11 -11 -11 -3 0 7 8 17 18 22 16 10 15 10 -3 11 -16 0 -17 2 -5 10 8 5 12
12 9 15 -4 3 -11 0 -16 -7z"/>
<path d="M1740 2670 c0 -5 5 -10 10 -10 6 0 10 5 10 10 0 6 -4 10 -10 10 -5 0
-10 -4 -10 -10z"/>
<path d="M1401 2583 c7 -12 15 -20 18 -17 3 2 -3 12 -13 22 -17 16 -18 16 -5
-5z"/>
<path d="M1686 2592 c-9 -15 19 -39 39 -32 17 6 16 8 -8 14 -15 3 -25 11 -22
16 3 6 4 10 1 10 -3 0 -7 -3 -10 -8z"/>
<path d="M1392 2541 c-7 -4 -14 -22 -17 -39 -2 -18 0 -30 6 -27 15 10 10 -7
-6 -19 -13 -9 -12 -11 8 -11 18 0 23 4 19 18 -2 9 -8 20 -13 23 -5 3 -9 10 -9
16 0 6 9 3 19 -6 20 -19 41 -14 41 8 0 20 -34 46 -48 37z m36 -35 c3 -11 0
-16 -7 -11 -6 3 -9 11 -6 16 3 5 -1 6 -9 3 -9 -3 -16 -1 -16 6 0 19 34 7 38
-14z"/>
<path d="M1715 2540 c-3 -5 -2 -10 4 -10 5 0 13 5 16 10 3 6 2 10 -4 10 -5 0
-13 -4 -16 -10z"/>
<path d="M1683 2525 c0 -8 7 -15 14 -15 8 0 11 -5 7 -12 -5 -7 -3 -8 5 -4 9 6
8 13 -5 27 -21 23 -21 23 -21 4z"/>
<path d="M1468 2431 c20 -12 -12 -23 -70 -24 -27 0 -48 -5 -48 -9 0 -5 21 -6
48 -3 34 5 43 4 32 -4 -9 -7 -10 -11 -3 -11 6 0 14 4 18 10 4 6 15 6 32 -1 25
-9 37 -6 39 12 1 5 2 15 3 22 1 6 6 2 12 -11 7 -18 14 -22 30 -17 12 4 27 8
33 9 12 2 16 9 16 29 -1 7 -6 5 -14 -5 -16 -21 -30 -24 -23 -5 3 8 -1 14 -9
14 -9 0 -12 -7 -8 -19 3 -10 1 -18 -4 -18 -5 0 -13 10 -16 23 -6 21 -7 21 -20
5 -16 -22 -26 -23 -26 -3 0 8 -8 15 -17 15 -14 0 -15 -2 -5 -9z m32 -31 c18
-12 2 -12 -25 0 -13 6 -15 9 -5 9 8 0 22 -4 30 -9z"/>
<path d="M1620 2435 c0 -7 30 -13 34 -7 3 4 -4 9 -15 9 -10 1 -19 0 -19 -2z"/>
<path d="M1368 2423 c6 -2 18 -2 25 0 6 3 1 5 -13 5 -14 0 -19 -2 -12 -5z"/>
<path d="M3176 3003 c-10 -37 -111 -550 -125 -638 -6 -33 -19 -103 -31 -155
-11 -52 -30 -147 -41 -210 -11 -63 -23 -125 -26 -137 -5 -23 -5 -23 120 -23
l125 0 21 93 c12 50 27 121 34 157 l13 65 199 7 c225 7 249 11 337 61 106 60
202 176 234 286 52 179 29 330 -66 415 -90 81 -174 96 -542 96 -226 0 -247 -1
-252 -17z m537 -191 c60 -27 80 -53 85 -115 9 -115 -44 -251 -117 -301 -62
-41 -129 -56 -264 -56 -108 0 -118 2 -113 18 2 9 14 64 25 122 51 270 64 336
69 349 8 22 258 8 315 -17z"/>
<path d="M3600 2780 c-14 -4 -20 -9 -15 -10 6 -1 17 -3 26 -5 9 -1 16 4 16 11
0 8 -1 14 -1 13 -1 -1 -12 -5 -26 -9z"/>
<path d="M3646 2781 c-3 -5 1 -11 9 -14 9 -4 12 -1 8 9 -6 16 -10 17 -17 5z"/>
<path d="M3453 2773 c15 -2 37 -2 50 0 12 2 0 4 -28 4 -27 0 -38 -2 -22 -4z"/>
<path d="M3730 2745 c0 -5 5 -17 10 -25 5 -8 10 -10 10 -5 0 6 -5 17 -10 25
-5 8 -10 11 -10 5z"/>
<path d="M3691 2724 c0 -11 3 -14 6 -6 3 7 2 16 -1 19 -3 4 -6 -2 -5 -13z"/>
<path d="M3423 2703 c4 -3 1 -13 -6 -22 -11 -14 -10 -14 5 -2 16 12 16 31 1
31 -4 0 -3 -3 0 -7z"/>
<path d="M3411 2644 c-12 -15 -20 -34 -20 -43 1 -13 2 -13 6 2 2 9 9 14 14 11
6 -3 9 2 7 12 -2 11 2 18 8 17 6 -1 11 5 11 13 0 19 -2 18 -26 -12z"/>
<path d="M3742 2620 c0 -14 2 -19 5 -12 2 6 2 18 0 25 -3 6 -5 1 -5 -13z"/>
<path d="M3410 2587 c0 -11 -4 -15 -12 -11 -7 5 -8 3 -3 -6 4 -7 2 -16 -6 -21
-11 -7 -10 -9 4 -9 9 0 17 -5 17 -11 0 -5 -5 -7 -12 -3 -7 4 -8 3 -4 -5 6 -9
11 -9 23 1 10 8 11 14 4 16 -14 5 -15 29 -1 34 6 2 6 8 0 18 -8 13 -10 12 -10
-3z"/>
<path d="M3686 2583 c-6 -14 -5 -15 5 -6 7 7 10 15 7 18 -3 3 -9 -2 -12 -12z"/>
<path d="M3717 2589 c7 -7 15 -10 18 -7 3 3 -2 9 -12 12 -14 6 -15 5 -6 -5z"/>
<path d="M3689 2553 c-10 -12 -11 -15 -1 -9 9 6 11 1 8 -16 -11 -50 -13 -62
-9 -50 3 6 8 12 12 12 6 0 10 16 13 57 1 7 5 10 9 7 4 -2 10 0 14 6 11 17 -32
11 -46 -7z"/>
<path d="M3380 2508 c0 -2 -4 -17 -9 -35 -7 -25 -6 -31 4 -27 8 3 11 14 7 27
-5 20 -4 20 11 8 21 -17 22 -5 2 15 -8 9 -15 14 -15 12z"/>
<path d="M3420 2499 c0 -5 5 -7 10 -4 6 3 10 8 10 11 0 2 -4 4 -10 4 -5 0 -10
-5 -10 -11z"/>
<path d="M3426 2457 c3 -10 9 -15 12 -12 3 3 0 11 -7 18 -10 9 -11 8 -5 -6z"/>
<path d="M3449 2435 c-1 -3 -3 -9 -4 -15 -1 -5 -3 -14 -4 -20 0 -5 -9 -10 -18
-11 -13 0 -14 -2 -4 -6 8 -3 19 1 25 9 6 8 18 17 26 21 11 4 10 6 -5 7 l-20 1
20 9 c17 7 17 9 3 9 -10 1 -19 -1 -19 -4z"/>
<path d="M3521 2414 c-9 -20 -16 -24 -34 -19 -19 5 -20 4 -5 -5 13 -8 23 -8
38 0 11 6 26 8 33 5 6 -4 4 0 -6 8 -13 11 -14 16 -6 19 9 3 9 7 2 11 -5 3 -15
-5 -22 -19z"/>
<path d="M3610 2431 c0 -7 -5 -9 -12 -5 -7 5 -8 3 -3 -6 5 -9 1 -10 -16 -6
-21 6 -22 6 -5 -5 14 -9 21 -8 34 5 9 8 13 19 9 22 -4 4 -7 2 -7 -5z"/>
<path d="M3495 2421 c-3 -5 -1 -12 5 -16 5 -3 10 1 10 9 0 18 -6 21 -15 7z"/>
<path d="M583 2980 c-18 -14 -19 -19 -9 -23 16 -6 40 17 34 32 -1 5 -13 1 -25
-9z"/>
<path d="M1970 2989 c0 -8 33 -24 58 -28 5 0 14 -11 20 -23 7 -15 11 -18 11
-7 1 8 -4 20 -11 27 -6 6 -8 15 -4 19 4 4 11 1 16 -7 5 -8 11 -12 15 -9 3 3
-4 14 -15 24 -11 10 -20 13 -20 7 0 -7 -12 -12 -27 -11 l-28 1 25 8 c23 8 22
8 -7 7 -18 -1 -33 -4 -33 -8z"/>
<path d="M2985 2991 c-3 -5 -1 -12 5 -16 5 -3 10 1 10 9 0 18 -6 21 -15 7z"/>
<path d="M3019 2995 c-1 -3 -2 -8 -3 -12 -1 -5 -5 -15 -11 -23 -7 -12 -6 -13
7 -3 8 7 19 9 24 5 4 -4 3 0 -4 9 -6 9 -9 19 -5 22 3 4 3 7 0 7 -4 0 -8 -2 -8
-5z"/>
<path d="M3071 2984 c0 -11 3 -14 6 -6 3 7 2 16 -1 19 -3 4 -6 -2 -5 -13z"/>
<path d="M3091 2995 c1 -19 18 -51 18 -35 0 8 -4 22 -9 30 -5 8 -9 11 -9 5z"/>
<path d="M3983 2985 c0 -8 4 -12 9 -9 5 3 6 10 3 15 -9 13 -12 11 -12 -6z"/>
<path d="M485 2978 c-4 -10 -11 -15 -16 -12 -5 3 -9 1 -9 -5 0 -5 6 -12 13
-14 9 -4 9 -6 -1 -6 -7 -1 -11 -5 -7 -10 3 -5 1 -12 -4 -16 -6 -3 -8 3 -6 15
2 11 0 20 -5 20 -10 0 -89 -121 -112 -172 l-17 -37 35 -30 c35 -31 50 -39 39
-21 -3 6 -2 10 4 10 6 0 14 16 20 35 5 19 19 48 30 64 12 16 21 34 21 40 0 6
5 10 11 9 7 -2 16 12 21 30 7 28 11 32 23 22 12 -10 15 -9 15 9 0 11 -5 20
-12 19 -7 -2 -17 13 -24 32 -10 28 -14 31 -19 18z"/>
<path d="M4400 2951 c0 -11 4 -22 9 -25 4 -3 6 6 3 19 -5 30 -12 33 -12 6z"/>
<path d="M3986 2949 c3 -5 12 -9 20 -9 8 0 20 -11 26 -25 6 -14 15 -25 19 -25
5 0 6 -6 3 -14 -6 -17 12 -31 21 -16 7 11 -31 69 -55 85 -20 13 -41 15 -34 4z"/>
<path d="M2015 2940 c3 -5 8 -10 11 -10 2 0 4 5 4 10 0 6 -5 10 -11 10 -5 0
-7 -4 -4 -10z"/>
<path d="M3031 2930 c7 -14 12 -29 11 -34 -2 -5 4 -4 12 4 9 7 16 19 16 27 0
8 5 11 10 8 6 -4 8 -11 5 -16 -4 -5 -1 -9 4 -9 13 0 14 10 3 28 -12 18 -45 3
-37 -17 3 -9 -4 -5 -16 9 l-20 25 12 -25z"/>
<path d="M575 2930 c-3 -5 1 -10 10 -10 9 0 13 5 10 10 -3 6 -8 10 -10 10 -2
0 -7 -4 -10 -10z"/>
<path d="M1085 2916 c-17 -12 -17 -14 -2 -37 12 -16 17 -19 18 -9 1 8 3 25 4
38 3 26 4 26 -20 8z m15 -16 c0 -5 -4 -10 -10 -10 -5 0 -10 5 -10 10 0 6 5 10
10 10 6 0 10 -4 10 -10z"/>
<path d="M3063 2885 c-16 -18 -17 -29 -2 -19 7 4 9 0 5 -14 -4 -11 -2 -23 3
-26 6 -4 9 5 8 21 -2 16 4 33 13 40 13 11 13 12 0 12 -8 0 -21 -6 -27 -14z"/>
<path d="M1053 2855 c-3 -9 -3 -19 1 -22 3 -4 6 1 6 10 0 8 6 18 13 20 9 4 9
6 -1 6 -7 1 -15 -6 -19 -14z"/>
<path d="M2084 2847 c1 -20 4 -23 14 -15 7 6 9 14 5 17 -4 4 -11 10 -14 14 -4
5 -6 -3 -5 -16z"/>
<path d="M1075 2830 c-3 -11 -11 -20 -16 -20 -5 0 -9 -5 -9 -11 0 -5 5 -7 10
-4 6 3 10 1 10 -4 0 -6 -4 -11 -8 -11 -4 0 -8 -9 -8 -19 0 -11 3 -18 7 -15 4
2 9 -2 12 -8 3 -7 4 7 2 30 -1 26 4 49 12 57 7 8 9 16 4 20 -5 3 -12 -4 -16
-15z"/>
<path d="M3060 2795 c0 -8 2 -15 4 -15 2 0 6 7 10 15 3 8 1 15 -4 15 -6 0 -10
-7 -10 -15z"/>
<path d="M4509 2798 c7 -9 9 -23 5 -30 -6 -10 -4 -11 7 0 11 10 10 15 -6 30
-17 15 -18 15 -6 0z"/>
<path d="M4484 2780 c0 -13 4 -16 10 -10 7 7 7 13 0 20 -6 6 -10 3 -10 -10z"/>
<path d="M2570 2780 c10 -6 9 -9 -1 -12 -8 -3 0 -5 18 -4 17 1 35 5 40 9 4 5
-1 5 -11 1 -11 -4 -17 -3 -14 2 4 5 -5 10 -19 11 -16 0 -21 -2 -13 -7z"/>
<path d="M2643 2775 c0 -7 6 -11 14 -8 7 3 13 6 13 8 0 2 -6 5 -13 8 -8 3 -14
-1 -14 -8z"/>
<path d="M2456 2761 c-4 -6 -1 -19 6 -30 11 -17 10 -23 -5 -34 -17 -12 -17
-13 1 -13 16 0 19 7 18 38 -2 40 -10 56 -20 39z"/>
<path d="M2670 2755 c-9 -10 -9 -15 -1 -15 6 0 11 5 11 11 0 6 7 8 16 5 8 -3
12 -2 9 4 -9 14 -21 12 -35 -5z"/>
<path d="M4120 2766 c0 -2 9 -6 20 -9 11 -3 20 -1 20 4 0 5 -9 9 -20 9 -11 0
-20 -2 -20 -4z"/>
<path d="M2426 2743 c-6 -14 -5 -15 5 -6 7 7 10 15 7 18 -3 3 -9 -2 -12 -12z"/>
<path d="M2600 2734 c0 -8 5 -12 10 -9 6 3 10 10 10 16 0 5 -4 9 -10 9 -5 0
-10 -7 -10 -16z"/>
<path d="M2674 2725 c-10 -8 -14 -15 -8 -15 5 0 19 7 30 15 10 8 14 15 8 15
-5 0 -19 -7 -30 -15z"/>
<path d="M1050 2720 c8 -5 20 -10 25 -10 6 0 3 5 -5 10 -8 5 -19 10 -25 10 -5
0 -3 -5 5 -10z"/>
<path d="M2433 2718 c-19 -25 -24 -38 -14 -38 6 0 11 6 11 14 0 8 6 16 13 19
6 2 9 7 6 11 -3 4 -11 1 -16 -6z"/>
<path d="M1043 2697 c0 -8 6 -14 14 -14 9 0 10 4 2 14 -6 7 -12 13 -14 13 -1
0 -2 -6 -2 -13z"/>
<path d="M2683 2682 c0 -12 5 -22 9 -22 11 0 10 12 -2 30 -7 12 -9 10 -7 -8z"/>
<path d="M2655 2680 c-3 -5 -1 -10 4 -10 6 0 11 5 11 10 0 6 -2 10 -4 10 -3 0
-8 -4 -11 -10z"/>
<path d="M1045 2641 c0 -16 3 -27 6 -25 9 5 8 54 0 54 -4 0 -7 -13 -6 -29z"/>
<path d="M2645 2649 c-11 -16 -1 -19 13 -3 7 8 8 14 3 14 -5 0 -13 -5 -16 -11z"/>
<path d="M4562 2640 c0 -14 2 -19 5 -12 2 6 2 18 0 25 -3 6 -5 1 -5 -13z"/>
<path d="M2670 2640 c-8 -5 -12 -12 -9 -15 4 -3 12 1 19 10 14 17 11 19 -10 5z"/>
<path d="M2435 2630 c-3 -5 -2 -10 4 -10 5 0 13 5 16 10 3 6 2 10 -4 10 -5 0
-13 -4 -16 -10z"/>
<path d="M4095 2615 c0 -13 3 -21 8 -18 4 2 7 10 7 18 0 8 -3 16 -7 18 -5 3
-8 -5 -8 -18z"/>
<path d="M2674 2605 c-4 -8 -10 -12 -15 -9 -16 10 -9 -3 9 -17 9 -7 14 -10 10
-5 -4 5 -3 17 3 27 5 11 7 19 4 19 -3 0 -8 -7 -11 -15z"/>
<path d="M4583 2595 c-3 -9 -3 -18 -1 -21 3 -3 8 4 11 16 6 23 -1 27 -10 5z"/>
<path d="M4085 2560 c-3 -5 -1 -10 4 -10 6 0 11 5 11 10 0 6 -2 10 -4 10 -3 0
-8 -4 -11 -10z"/>
<path d="M2385 2539 c-4 -12 -3 -25 2 -29 4 -5 8 4 9 21 1 34 -2 37 -11 8z"/>
<path d="M4616 2525 c-3 -8 -1 -15 4 -15 6 0 10 7 10 15 0 8 -2 15 -4 15 -2 0
-6 -7 -10 -15z"/>
<path d="M2654 2518 c-12 -19 -12 -88 -1 -88 6 0 8 3 4 6 -3 3 -2 17 3 30 6
15 6 26 -1 30 -6 4 -6 11 2 20 6 8 9 14 6 14 -3 0 -9 -6 -13 -12z"/>
<path d="M4066 2508 c-3 -13 -2 -26 3 -31 4 -4 8 6 9 23 1 36 -3 39 -12 8z"/>
<path d="M980 2507 c-15 -12 -24 -47 -11 -47 9 0 67 40 58 40 -5 0 -17 -5 -28
-10 -11 -7 -19 -7 -19 -1 0 5 6 11 13 14 6 2 10 7 7 10 -3 3 -12 0 -20 -6z"/>
<path d="M2382 2468 c-9 -9 -9 -15 1 -27 9 -11 9 -13 0 -8 -6 4 -14 3 -18 -3
-3 -5 3 -10 13 -10 15 0 19 7 18 30 0 17 -1 30 -1 30 -1 0 -6 -5 -13 -12z"/>
<path d="M1001 2461 c-10 -6 -11 -14 -3 -26 9 -17 10 -16 17 4 8 27 4 33 -14
22z"/>
<path d="M4054 2463 c4 -7 2 -13 -3 -13 -6 0 -11 -5 -11 -11 0 -8 6 -7 17 2
15 12 16 12 9 -6 -6 -16 -5 -18 5 -7 11 10 10 16 -5 30 -11 9 -16 11 -12 5z"/>
<path d="M4571 2424 c0 -11 3 -14 6 -6 3 7 2 16 -1 19 -3 4 -6 -2 -5 -13z"/>
<path d="M2364 2399 c-7 -11 16 -32 25 -23 3 3 -1 9 -8 14 -11 6 -10 9 5 13
16 4 16 5 2 6 -9 0 -20 -4 -24 -10z"/>
<path d="M4056 2398 c3 -5 10 -6 15 -3 13 9 11 12 -6 12 -8 0 -12 -4 -9 -9z"/>
<path d="M980 2378 l-25 -21 25 8 c22 7 23 6 11 -9 -12 -14 -12 -16 1 -11 9 4
15 17 14 31 0 13 -1 24 -1 24 0 -1 -11 -10 -25 -22z"/>
<path d="M4033 2376 c0 -8 6 -12 14 -9 7 3 10 9 7 14 -8 14 -21 11 -21 -5z"/>
<path d="M3999 2363 c-13 -16 -12 -17 4 -4 16 13 21 21 13 21 -2 0 -10 -8 -17
-17z"/>
<path d="M2350 2360 c0 -5 5 -10 10 -10 6 0 10 -9 10 -20 0 -12 -7 -20 -17
-20 -13 0 -15 -2 -5 -9 7 -4 17 -21 21 -37 7 -25 10 -26 16 -10 5 11 3 21 -5
26 -7 4 -10 15 -7 25 4 9 11 13 17 10 5 -3 10 -1 10 4 0 6 -4 11 -9 11 -5 0
-11 9 -14 20 -5 20 -27 28 -27 10z"/>
<path d="M2581 2351 c-8 -5 -10 -14 -6 -21 6 -9 10 -8 17 4 12 21 7 28 -11 17z"/>
<path d="M2612 2340 c-9 -15 -8 -21 5 -32 14 -11 15 -10 8 11 -5 16 -4 21 4
17 6 -4 11 -3 11 3 0 19 -16 20 -28 1z"/>
<path d="M3966 2314 c-26 -27 -35 -54 -16 -54 5 0 7 7 3 16 -5 13 -1 15 18 10
13 -3 18 -3 12 0 -7 3 -13 10 -13 15 0 4 6 7 13 5 6 -1 8 -1 4 2 -4 2 -3 10 4
18 20 24 3 15 -25 -12z"/>
<path d="M969 2313 c-8 -9 -9 -14 -2 -10 6 4 13 1 16 -5 3 -7 4 -3 4 10 -1 26
-1 26 -18 5z"/>
<path d="M1983 2318 c-14 -18 -22 -68 -12 -68 5 0 9 14 9 31 0 16 4 28 8 25 5
-3 9 1 9 9 0 18 -2 18 -14 3z"/>
<path d="M2567 2286 c-4 -10 -3 -15 3 -11 6 3 10 -4 10 -17 0 -13 3 -18 8 -12
4 6 14 14 22 17 12 4 12 6 -2 6 -9 1 -21 8 -26 17 -8 15 -10 15 -15 0z"/>
<path d="M4560 2281 c0 -6 4 -13 10 -16 6 -3 7 1 4 9 -7 18 -14 21 -14 7z"/>
<path d="M442 2260 c0 -14 2 -19 5 -12 2 6 2 18 0 25 -3 6 -5 1 -5 -13z"/>
<path d="M1935 2270 c-3 -6 1 -7 9 -4 18 7 21 14 7 14 -6 0 -13 -4 -16 -10z"/>
<path d="M3920 2255 c0 -10 -3 -16 -6 -12 -12 12 -33 -17 -22 -30 11 -14 29
-17 27 -5 -3 20 2 31 18 34 15 3 15 4 0 17 -15 12 -17 11 -17 -4z"/>
<path d="M1904 2236 c-10 -25 0 -38 13 -17 8 13 9 22 3 26 -6 4 -13 -1 -16 -9z"/>
<path d="M2335 2240 c-3 -5 -1 -10 4 -10 6 0 11 5 11 10 0 6 -2 10 -4 10 -3 0
-8 -4 -11 -10z"/>
<path d="M1975 2230 c-3 -5 -1 -10 4 -10 6 0 11 5 11 10 0 6 -2 10 -4 10 -3 0
-8 -4 -11 -10z"/>
<path d="M1871 2217 c-8 -10 -7 -14 2 -14 8 0 14 6 14 14 0 7 -1 13 -2 13 -2
0 -8 -6 -14 -13z"/>
<path d="M2567 2208 c-4 -14 -2 -16 6 -10 7 5 19 11 27 14 10 3 8 6 -7 10 -15
4 -23 0 -26 -14z"/>
<path d="M1925 2210 c3 -5 8 -10 11 -10 2 0 4 5 4 10 0 6 -5 10 -11 10 -5 0
-7 -4 -4 -10z"/>
<path d="M1948 2192 c-28 -16 -37 -32 -19 -32 5 0 12 7 15 16 3 8 11 12 17 8
8 -4 7 -9 -2 -15 -7 -4 -10 -11 -6 -15 10 -10 17 -1 23 30 5 31 7 30 -28 8z"/>
<path d="M3809 2186 c-1 -3 -2 -16 -3 -28 0 -12 -7 -23 -14 -26 -7 -2 -10 2
-6 11 4 13 -1 14 -28 10 -40 -6 -50 -13 -19 -13 12 0 20 -4 17 -9 -7 -10 70
-8 81 2 3 4 1 7 -6 7 -8 0 -11 8 -8 20 3 11 1 23 -4 26 -5 3 -10 3 -10 0z"/>
<path d="M1795 2163 c-19 -15 -19 -15 4 -8 18 6 22 4 15 -6 -6 -12 -5 -12 9 0
18 14 23 26 8 17 -5 -4 -11 -2 -13 3 -1 5 -12 3 -23 -6z"/>
<path d="M950 2155 c0 -8 2 -15 4 -15 2 0 6 7 10 15 3 8 1 15 -4 15 -6 0 -10
-7 -10 -15z"/>
<path d="M1750 2151 c-8 -6 -17 -8 -21 -5 -4 2 -12 -3 -19 -11 -9 -10 -9 -15
-1 -15 6 0 11 6 11 13 0 7 3 8 8 2 10 -14 39 -17 47 -5 4 6 -1 7 -12 3 -16 -6
-16 -5 -4 10 15 19 13 21 -9 8z"/>
<path d="M4483 2125 c0 -8 4 -12 9 -9 5 3 6 10 3 15 -9 13 -12 11 -12 -6z"/>
<path d="M4400 2116 c0 -2 7 -7 16 -10 8 -3 12 -2 9 4 -6 10 -25 14 -25 6z"/>
<path d="M915 2083 c-1 -16 4 -31 9 -35 7 -4 0 -18 -17 -36 -15 -15 -27 -32
-27 -37 0 -5 7 0 15 11 13 17 16 17 26 4 9 -13 10 -12 5 4 -4 10 -2 24 2 30
10 12 4 86 -7 86 -3 0 -6 -12 -6 -27z"/>
<path d="M1310 2101 c0 -5 7 -11 15 -15 8 -3 15 -1 15 3 0 5 -7 11 -15 15 -8
3 -15 1 -15 -3z"/>
<path d="M2895 2100 c4 -6 11 -8 16 -5 14 9 11 15 -7 15 -8 0 -12 -5 -9 -10z"/>
<path d="M3348 2103 c7 -3 16 -2 19 1 4 3 -2 6 -13 5 -11 0 -14 -3 -6 -6z"/>
<path d="M1357 2089 c7 -7 15 -10 18 -7 3 3 -2 9 -12 12 -14 6 -15 5 -6 -5z"/>
<path d="M2922 2084 c-7 -8 -8 -14 -3 -14 10 0 25 19 20 25 -2 1 -10 -3 -17
-11z"/>
<path d="M4407 2070 c-3 -14 -1 -17 11 -13 11 5 13 3 7 -8 -5 -10 -5 -11 3 -4
18 17 18 37 0 40 -9 2 -18 -5 -21 -15z"/>
<path d="M881 2054 c0 -11 3 -14 6 -6 3 7 2 16 -1 19 -3 4 -6 -2 -5 -13z"/>
<path d="M1342 2054 c-7 -8 -8 -14 -3 -14 10 0 25 19 20 25 -2 1 -10 -3 -17
-11z"/>
<path d="M2883 2053 c1 -13 5 -23 10 -23 4 0 5 -4 2 -10 -3 -5 -1 -10 4 -10 6
0 11 -5 11 -11 0 -5 -4 -7 -10 -4 -5 3 -10 1 -10 -4 0 -6 5 -11 11 -11 5 0 7
-5 4 -10 -4 -6 -10 -8 -14 -6 -4 3 -7 -9 -6 -25 0 -26 2 -27 12 -13 7 9 10 20
8 25 -3 4 -1 10 4 13 5 4 8 21 5 38 -2 18 2 36 9 41 9 6 8 7 -3 4 -8 -2 -20 3
-27 12 -10 14 -12 13 -10 -6z"/>
<path d="M3348 2053 c7 -3 16 -2 19 1 4 3 -2 6 -13 5 -11 0 -14 -3 -6 -6z"/>
<path d="M889 2023 c-13 -16 -12 -17 4 -4 9 7 17 15 17 17 0 8 -8 3 -21 -13z"/>
<path d="M3266 2012 c-3 -5 -4 -22 -2 -38 2 -16 -1 -34 -6 -40 -13 -17 -19
-56 -7 -49 5 4 9 2 9 -3 0 -6 -7 -13 -16 -16 -9 -3 -14 -12 -11 -19 2 -6 -3
-21 -12 -32 -8 -11 -9 -15 -2 -8 10 8 20 9 32 3 12 -7 20 -6 24 0 4 6 3 10 -2
9 -4 -1 -15 -1 -23 0 -13 1 -13 3 0 10 8 6 18 7 23 4 5 -3 4 3 -1 14 -7 12 -7
25 -1 36 6 10 7 17 2 16 -20 -3 -27 2 -13 11 10 6 15 26 16 60 0 51 -1 56 -10
42z m-6 -162 c0 -5 -2 -10 -4 -10 -3 0 -8 5 -11 10 -3 6 -1 10 4 10 6 0 11 -4
11 -10z"/>
<path d="M910 1965 c7 -9 10 -19 6 -22 -4 -4 -11 -2 -15 6 -7 10 -9 9 -14 -3
-3 -8 -2 -18 4 -21 5 -4 7 -10 4 -15 -3 -4 3 -14 13 -21 15 -13 16 -12 3 4
-11 14 -11 17 0 17 12 0 12 2 1 9 -11 7 -11 9 2 14 21 8 21 33 0 41 -14 5 -15
4 -4 -9z"/>
<path d="M1265 1950 c-3 -5 -1 -10 4 -10 6 0 11 5 11 10 0 6 -2 10 -4 10 -3 0
-8 -4 -11 -10z"/>
<path d="M740 1920 c0 -5 5 -10 11 -10 5 0 7 5 4 10 -3 6 -8 10 -11 10 -2 0
-4 -4 -4 -10z"/>
<path d="M1269 1925 c-1 -3 -2 -13 -3 -22 -1 -10 -5 -23 -9 -30 -8 -12 10 -29
20 -19 4 3 1 6 -6 6 -7 0 -9 5 -4 13 7 12 13 57 6 57 -1 0 -4 -2 -4 -5z"/>
<path d="M765 1890 c-3 -5 1 -10 10 -10 9 0 13 5 10 10 -3 6 -8 10 -10 10 -2
0 -7 -4 -10 -10z"/>
<path d="M2889 1893 c0 -5 -3 -21 -5 -38 -3 -16 -2 -26 2 -22 8 8 15 67 8 67
-2 0 -4 -3 -5 -7z"/>
<path d="M884 1871 c0 -10 6 -18 13 -18 7 0 13 4 13 7 0 4 -6 12 -13 18 -10 8
-13 6 -13 -7z"/>
<path d="M4090 1876 c0 -2 8 -10 18 -17 15 -13 16 -12 3 4 -13 16 -21 21 -21
13z"/>
<path d="M4131 1833 c-21 -22 -5 -27 18 -6 13 12 16 20 8 20 -7 0 -19 -7 -26
-14z"/>
<path d="M883 1825 c0 -8 4 -12 8 -10 3 3 12 -2 20 -11 20 -25 47 -36 55 -22
4 6 3 8 -4 4 -6 -3 -26 7 -45 23 -22 20 -34 25 -34 16z"/>
<path d="M1244 1822 c3 -6 0 -13 -6 -15 -7 -3 -1 -5 15 -4 33 2 33 3 6 18 -13
6 -19 7 -15 1z"/>
<path d="M2887 1809 c7 -7 15 -10 18 -7 3 3 -2 9 -12 12 -14 6 -15 5 -6 -5z"/>
<path d="M1078 1783 c23 -2 61 -2 85 0 23 2 4 4 -43 4 -47 0 -66 -2 -42 -4z"/>
<path d="M3940 1778 c0 -10 9 -9 35 2 17 8 16 8 -7 7 -16 -1 -28 -5 -28 -9z"/>
<path d="M3955 1749 c-11 -17 1 -21 15 -4 8 9 8 15 2 15 -6 0 -14 -5 -17 -11z"/>
<path d="M1110 1701 c0 -5 5 -13 10 -16 6 -3 10 -2 10 4 0 5 -4 13 -10 16 -5
3 -10 2 -10 -4z"/>
<path d="M1158 1703 c7 -3 16 -2 19 1 4 3 -2 6 -13 5 -11 0 -14 -3 -6 -6z"/>
<path d="M3823 1703 c9 -2 23 -2 30 0 6 3 -1 5 -18 5 -16 0 -22 -2 -12 -5z"/>
<path d="M3780 1690 c8 -5 26 -9 40 -9 l25 1 -25 8 c-14 4 -32 8 -40 9 -13 1
-13 0 0 -9z"/>
<path d="M1168 1673 c7 -3 16 -2 19 1 4 3 -2 6 -13 5 -11 0 -14 -3 -6 -6z"/>
<path d="M3793 1663 c9 -2 23 -2 30 0 6 3 -1 5 -18 5 -16 0 -22 -2 -12 -5z"/>
<path d="M1320 1630 c-13 -9 -13 -10 0 -10 8 0 22 5 30 10 13 9 13 10 0 10 -8
0 -22 -5 -30 -10z"/>
<path d="M3525 1630 c-3 -5 -2 -10 4 -10 5 0 13 5 16 10 3 6 2 10 -4 10 -5 0
-13 -4 -16 -10z"/>
<path d="M3710 1630 c-8 -5 -10 -10 -5 -10 6 0 17 5 25 10 8 5 11 10 5 10 -5
0 -17 -5 -25 -10z"/>
<path d="M1425 1620 c-3 -5 -1 -10 4 -10 6 0 11 5 11 10 0 6 -2 10 -4 10 -3 0
-8 -4 -11 -10z"/>
<path d="M3628 1623 c7 -3 16 -2 19 1 4 3 -2 6 -13 5 -11 0 -14 -3 -6 -6z"/>
<path d="M1357 1613 c-3 -5 6 -8 19 -8 13 0 24 3 24 8 0 4 -9 7 -19 7 -11 0
-22 -3 -24 -7z"/>
<path d="M1420 1590 c0 -5 5 -10 11 -10 5 0 7 5 4 10 -3 6 -8 10 -11 10 -2 0
-4 -4 -4 -10z"/>
<path d="M3544 1585 c-25 -19 -15 -19 27 0 25 10 29 14 13 15 -11 0 -29 -7
-40 -15z"/>
<path d="M1508 1553 c6 -2 18 -2 25 0 6 3 1 5 -13 5 -14 0 -19 -2 -12 -5z"/>
<path d="M1718 1553 c7 -3 16 -2 19 1 4 3 -2 6 -13 5 -11 0 -14 -3 -6 -6z"/>
<path d="M1660 1541 c23 -7 23 -8 5 -13 -11 -3 -6 -4 10 -2 18 2 43 -4 62 -16
18 -11 30 -14 27 -7 -6 16 -50 35 -94 42 -28 4 -30 3 -10 -4z"/>
<path d="M1588 1533 c7 -3 16 -2 19 1 4 3 -2 6 -13 5 -11 0 -14 -3 -6 -6z"/>
<path d="M3228 1523 c7 -3 16 -2 19 1 4 3 -2 6 -13 5 -11 0 -14 -3 -6 -6z"/>
<path d="M3323 1523 c9 -2 25 -2 35 0 9 3 1 5 -18 5 -19 0 -27 -2 -17 -5z"/>
<path d="M3213 1503 c9 -2 23 -2 30 0 6 3 -1 5 -18 5 -16 0 -22 -2 -12 -5z"/>
<path d="M2138 1473 c7 -3 16 -2 19 1 4 3 -2 6 -13 5 -11 0 -14 -3 -6 -6z"/>
<path d="M2208 1473 c6 -2 18 -2 25 0 6 3 1 5 -13 5 -14 0 -19 -2 -12 -5z"/>
<path d="M2945 1470 c-13 -6 -15 -9 -5 -9 8 0 22 4 30 9 18 12 2 12 -25 0z"/>
<path d="M2058 1463 c12 -2 32 -2 45 0 12 2 2 4 -23 4 -25 0 -35 -2 -22 -4z"/>
<path d="M2673 1463 c15 -2 39 -2 55 0 15 2 2 4 -28 4 -30 0 -43 -2 -27 -4z"/>
<path d="M2840 1463 c33 -3 41 -7 30 -15 -12 -8 -11 -9 3 -4 10 3 26 6 35 7
34 2 -34 17 -73 16 l-40 0 45 -4z"/>
<path d="M2208 1453 c7 -3 16 -2 19 1 4 3 -2 6 -13 5 -11 0 -14 -3 -6 -6z"/>
<path d="M2778 1443 c7 -3 16 -2 19 1 4 3 -2 6 -13 5 -11 0 -14 -3 -6 -6z"/>
</g>
</svg>
